{
    "asset" : {
        "generator" : "Khronos glTF Blender I/O v1.6.8",
        "version" : "2.0"
    },
    "scene" : 0,
    "scenes" : [
        {
            "name" : "Scene",
            "nodes" : [
                0,
                1,
                2,
                3,
                4
            ]
        }
    ],
    "nodes" : [
        {
            "mesh" : 0,
            "name" : "Cube",
            "scale" : [
                0.050000011920928955,
                0.050000011920928955,
                0.050000011920928955
            ]
        },
        {
            "mesh" : 1,
            "name" : "+X",
            "scale" : [
                0.050000011920928955,
                0.050000011920928955,
                0.050000011920928955
            ]
        },
        {
            "mesh" : 2,
            "name" : "+Y",
            "scale" : [
                0.050000011920928955,
                0.050000011920928955,
                0.050000011920928955
            ]
        },
        {
            "mesh" : 3,
            "name" : "-Z",
            "scale" : [
                0.050000011920928955,
                0.050000011920928955,
                0.050000011920928955
            ]
        },
        {
            "mesh" : 4,
            "name" : "-X",
            "scale" : [
                0.050000011920928955,
                0.050000011920928955,
                0.050000011920928955
            ]
        }
    ],
    "materials" : [
        {
            "doubleSided" : true,
            "name" : "Material",
            "pbrMetallicRoughness" : {
                "baseColorFactor" : [
                    0.800000011920929,
                    0.800000011920929,
                    0.800000011920929,
                    1
                ],
                "metallicFactor" : 0,
                "roughnessFactor" : 0.4000000059604645
            }
        }
    ],
    "meshes" : [
        {
            "name" : "Cube",
            "primitives" : [
                {
                    "attributes" : {
                        "POSITION" : 0,
                        "NORMAL" : 1,
                        "TEXCOORD_0" : 2,
                        "COLOR_0" : 3
                    },
                    "indices" : 4,
                    "material" : 0
                }
            ]
        },
        {
            "name" : "Cube.001",
            "primitives" : [
                {
                    "attributes" : {
                        "POSITION" : 5,
                        "NORMAL" : 6,
                        "TEXCOORD_0" : 7,
                        "COLOR_0" : 8
                    },
                    "indices" : 9,
                    "material" : 0
                }
            ]
        },
        {
            "name" : "Cube.002",
            "primitives" : [
                {
                    "attributes" : {
                        "POSITION" : 10,
                        "NORMAL" : 11,
                        "TEXCOORD_0" : 12,
                        "COLOR_0" : 13
                    },
                    "indices" : 14,
                    "material" : 0
                }
            ]
        },
        {
            "name" : "Cube.003",
            "primitives" : [
                {
                    "attributes" : {
                        "POSITION" : 15,
                        "NORMAL" : 16,
                        "TEXCOORD_0" : 17,
                        "COLOR_0" : 18
                    },
                    "indices" : 9,
                    "material" : 0
                }
            ]
        },
        {
            "name" : "Cube.004",
            "primitives" : [
                {
                    "attributes" : {
                        "POSITION" : 19,
                        "NORMAL" : 20,
                        "TEXCOORD_0" : 21,
                        "COLOR_0" : 22
                    },
                    "indices" : 23,
                    "material" : 0
                }
            ]
        }
    ],
    "accessors" : [
        {
            "bufferView" : 0,
            "componentType" : 5126,
            "count" : 80,
            "max" : [
                1,
                1,
                1
            ],
            "min" : [
                -1,
                -1,
                -1
            ],
            "type" : "VEC3"
        },
        {
            "bufferView" : 1,
            "componentType" : 5126,
            "count" : 80,
            "type" : "VEC3"
        },
        {
            "bufferView" : 2,
            "componentType" : 5126,
            "count" : 80,
            "type" : "VEC2"
        },
        {
            "bufferView" : 3,
            "componentType" : 5123,
            "count" : 80,
            "normalized" : true,
            "type" : "VEC4"
        },
        {
            "bufferView" : 4,
            "componentType" : 5123,
            "count" : 108,
            "type" : "SCALAR"
        },
        {
            "bufferView" : 5,
            "componentType" : 5126,
            "count" : 4,
            "max" : [
                1,
                0.8762199282646179,
                0.8762199282646179
            ],
            "min" : [
                1,
                -0.8762199282646179,
                -0.8762199282646179
            ],
            "type" : "VEC3"
        },
        {
            "bufferView" : 6,
            "componentType" : 5126,
            "count" : 4,
            "type" : "VEC3"
        },
        {
            "bufferView" : 7,
            "componentType" : 5126,
            "count" : 4,
            "type" : "VEC2"
        },
        {
            "bufferView" : 8,
            "componentType" : 5123,
            "count" : 4,
            "normalized" : true,
            "type" : "VEC4"
        },
        {
            "bufferView" : 9,
            "componentType" : 5123,
            "count" : 6,
            "type" : "SCALAR"
        },
        {
            "bufferView" : 10,
            "componentType" : 5126,
            "count" : 4,
            "max" : [
                0.8762199282646179,
                1,
                0.8762199282646179
            ],
            "min" : [
                -0.8762199282646179,
                1,
                -0.8762199282646179
            ],
            "type" : "VEC3"
        },
        {
            "bufferView" : 11,
            "componentType" : 5126,
            "count" : 4,
            "type" : "VEC3"
        },
        {
            "bufferView" : 12,
            "componentType" : 5126,
            "count" : 4,
            "type" : "VEC2"
        },
        {
            "bufferView" : 13,
            "componentType" : 5123,
            "count" : 4,
            "normalized" : true,
            "type" : "VEC4"
        },
        {
            "bufferView" : 14,
            "componentType" : 5123,
            "count" : 6,
            "type" : "SCALAR"
        },
        {
            "bufferView" : 15,
            "componentType" : 5126,
            "count" : 4,
            "max" : [
                0.8762199282646179,
                0.8762199282646179,
                1
            ],
            "min" : [
                -0.8762199282646179,
                -0.8762199282646179,
                1
            ],
            "type" : "VEC3"
        },
        {
            "bufferView" : 16,
            "componentType" : 5126,
            "count" : 4,
            "type" : "VEC3"
        },
        {
            "bufferView" : 17,
            "componentType" : 5126,
            "count" : 4,
            "type" : "VEC2"
        },
        {
            "bufferView" : 18,
            "componentType" : 5123,
            "count" : 4,
            "normalized" : true,
            "type" : "VEC4"
        },
        {
            "bufferView" : 19,
            "componentType" : 5126,
            "count" : 4,
            "max" : [
                -1,
                0.8762199282646179,
                0.8762199282646179
            ],
            "min" : [
                -1,
                -0.8762199282646179,
                -0.8762199282646179
            ],
            "type" : "VEC3"
        },
        {
            "bufferView" : 20,
            "componentType" : 5126,
            "count" : 4,
            "type" : "VEC3"
        },
        {
            "bufferView" : 21,
            "componentType" : 5126,
            "count" : 4,
            "type" : "VEC2"
        },
        {
            "bufferView" : 22,
            "componentType" : 5123,
            "count" : 4,
            "normalized" : true,
            "type" : "VEC4"
        },
        {
            "bufferView" : 23,
            "componentType" : 5123,
            "count" : 6,
            "type" : "SCALAR"
        }
    ],
    "bufferViews" : [
        {
            "buffer" : 0,
            "byteLength" : 960,
            "byteOffset" : 0
        },
        {
            "buffer" : 0,
            "byteLength" : 960,
            "byteOffset" : 960
        },
        {
            "buffer" : 0,
            "byteLength" : 640,
            "byteOffset" : 1920
        },
        {
            "buffer" : 0,
            "byteLength" : 640,
            "byteOffset" : 2560
        },
        {
            "buffer" : 0,
            "byteLength" : 216,
            "byteOffset" : 3200
        },
        {
            "buffer" : 0,
            "byteLength" : 48,
            "byteOffset" : 3416
        },
        {
            "buffer" : 0,
            "byteLength" : 48,
            "byteOffset" : 3464
        },
        {
            "buffer" : 0,
            "byteLength" : 32,
            "byteOffset" : 3512
        },
        {
            "buffer" : 0,
            "byteLength" : 32,
            "byteOffset" : 3544
        },
        {
            "buffer" : 0,
            "byteLength" : 12,
            "byteOffset" : 3576
        },
        {
            "buffer" : 0,
            "byteLength" : 48,
            "byteOffset" : 3588
        },
        {
            "buffer" : 0,
            "byteLength" : 48,
            "byteOffset" : 3636
        },
        {
            "buffer" : 0,
            "byteLength" : 32,
            "byteOffset" : 3684
        },
        {
            "buffer" : 0,
            "byteLength" : 32,
            "byteOffset" : 3716
        },
        {
            "buffer" : 0,
            "byteLength" : 12,
            "byteOffset" : 3748
        },
        {
            "buffer" : 0,
            "byteLength" : 48,
            "byteOffset" : 3760
        },
        {
            "buffer" : 0,
            "byteLength" : 48,
            "byteOffset" : 3808
        },
        {
            "buffer" : 0,
            "byteLength" : 32,
            "byteOffset" : 3856
        },
        {
            "buffer" : 0,
            "byteLength" : 32,
            "byteOffset" : 3888
        },
        {
            "buffer" : 0,
            "byteLength" : 48,
            "byteOffset" : 3920
        },
        {
            "buffer" : 0,
            "byteLength" : 48,
            "byteOffset" : 3968
        },
        {
            "buffer" : 0,
            "byteLength" : 32,
            "byteOffset" : 4016
        },
        {
            "buffer" : 0,
            "byteLength" : 32,
            "byteOffset" : 4048
        },
        {
            "buffer" : 0,
            "byteLength" : 12,
            "byteOffset" : 4080
        }
    ],
    "buffers" : [
        {
            "byteLength" : 4092,
            "uri" : "data:application/octet-stream;base64,"
        }
    ]
}
