{
    "asset" : {
        "generator" : "Khronos glTF Blender I/O v1.6.8",
        "version" : "2.0"
    },
    "scene" : 0,
    "scenes" : [
        {
            "name" : "Scene",
            "nodes" : [
                0,
                1,
                2,
                3,
                4
            ]
        }
    ],
    "nodes" : [
        {
            "mesh" : 0,
            "name" : "table",
            "translation" : [
                0.13299351930618286,
                -0.011149999685585499,
                -0.09567772597074509
            ]
        },
        {
            "mesh" : 1,
            "name" : "measurement pad",
            "translation" : [
                0.11479999870061874,
                -0.011260000057518482,
                -0.11479999870061874
            ]
        },
        {
            "name" : "Spotlight",
            "rotation" : [
                -0.2233230322599411,
                0.4593132436275482,
                0.12049856036901474,
                0.8512568473815918
            ],
            "translation" : [
                -0.4300000071525574,
                0.8499999642372131,
                -0.20999997854232788
            ]
        },
        {
            "name" : "Frontlight",
            "rotation" : [
                0.493902325630188,
                0.2308710664510727,
                -0.1378999948501587,
                0.826887309551239
            ],
            "translation" : [
                0.3999999761581421,
                0.4099999666213989,
                0.6899999976158142
            ]
        },
        {
            "name" : "Backlight",
            "rotation" : [
                -0.597615122795105,
                -0.20206961035728455,
                -0.1590130776166916,
                0.7594334483146667
            ],
            "translation" : [
                1.2799999713897705,
                0.5916231274604797,
                -2.1857824325561523
            ]
        }
    ],
    "materials" : [
        {
            "doubleSided" : true,
            "name" : "woodtable",
            "normalTexture" : {
                "index" : 0,
                "scale" : 0.30000007152557373
            },
            "pbrMetallicRoughness" : {
                "baseColorTexture" : {
                    "index" : 1
                },
                "metallicRoughnessTexture" : {
                    "index" : 2
                },
                "roughnessFactor" : 1.5999999046325684
            }
        },
        {
            "doubleSided" : true,
            "name" : "grid pad",
            "normalTexture" : {
                "index" : 3,
                "texCoord" : 1
            },
            "pbrMetallicRoughness" : {
                "baseColorTexture" : {
                    "index" : 4
                },
                "metallicFactor" : 0,
                "roughnessFactor" : 0.7272727489471436
            }
        }
    ],
    "meshes" : [
        {
            "name" : "Cube.001",
            "primitives" : [
                {
                    "attributes" : {
                        "POSITION" : 0,
                        "NORMAL" : 1,
                        "TANGENT" : 2,
                        "TEXCOORD_0" : 3
                    },
                    "indices" : 4,
                    "material" : 0
                }
            ]
        },
        {
            "name" : "Cube.002",
            "primitives" : [
                {
                    "attributes" : {
                        "POSITION" : 5,
                        "NORMAL" : 6,
                        "TANGENT" : 7,
                        "TEXCOORD_0" : 8,
                        "TEXCOORD_1" : 9
                    },
                    "indices" : 4,
                    "material" : 1
                }
            ]
        }
    ],
    "textures" : [
        {
            "sampler" : 0,
            "source" : 0
        },
        {
            "sampler" : 0,
            "source" : 1
        },
        {
            "sampler" : 0,
            "source" : 2
        },
        {
            "sampler" : 0,
            "source" : 3
        },
        {
            "sampler" : 0,
            "source" : 4
        }
    ],
    "images" : [
        {
            "mimeType" : "image/jpeg",
            "name" : "Wood051_2K_Normal",
            "uri" : "Wood051_2K_Normal.jpg"
        },
        {
            "mimeType" : "image/jpeg",
            "name" : "Wood051_2K_Color",
            "uri" : "Wood051_2K_Color.jpg"
        },
        {
            "mimeType" : "image/png",
            "name" : "metalness-Wood051_2K_Roughness",
            "uri" : "metalness-Wood051_2K_Roughness.png"
        },
        {
            "mimeType" : "image/png",
            "name" : "pad-normalmap",
            "uri" : "pad-normalmap.png"
        },
        {
            "mimeType" : "image/png",
            "name" : "grid-pad V01",
            "uri" : "grid-pad%20V01.png"
        }
    ],
    "accessors" : [
        {
            "bufferView" : 0,
            "componentType" : 5126,
            "count" : 24,
            "max" : [
                0.5,
                0.009808093309402466,
                0.5
            ],
            "min" : [
                -0.5,
                -0.009808093309402466,
                -0.5
            ],
            "type" : "VEC3"
        },
        {
            "bufferView" : 1,
            "componentType" : 5126,
            "count" : 24,
            "type" : "VEC3"
        },
        {
            "bufferView" : 2,
            "componentType" : 5126,
            "count" : 24,
            "type" : "VEC4"
        },
        {
            "bufferView" : 3,
            "componentType" : 5126,
            "count" : 24,
            "type" : "VEC2"
        },
        {
            "bufferView" : 4,
            "componentType" : 5123,
            "count" : 36,
            "type" : "SCALAR"
        },
        {
            "bufferView" : 5,
            "componentType" : 5126,
            "count" : 24,
            "max" : [
                0.125,
                0.0112571120262146,
                0.125
            ],
            "min" : [
                -0.125,
                0.009813751094043255,
                -0.125
            ],
            "type" : "VEC3"
        },
        {
            "bufferView" : 6,
            "componentType" : 5126,
            "count" : 24,
            "type" : "VEC3"
        },
        {
            "bufferView" : 7,
            "componentType" : 5126,
            "count" : 24,
            "type" : "VEC4"
        },
        {
            "bufferView" : 8,
            "componentType" : 5126,
            "count" : 24,
            "type" : "VEC2"
        },
        {
            "bufferView" : 9,
            "componentType" : 5126,
            "count" : 24,
            "type" : "VEC2"
        }
    ],
    "bufferViews" : [
        {
            "buffer" : 0,
            "byteLength" : 288,
            "byteOffset" : 0
        },
        {
            "buffer" : 0,
            "byteLength" : 288,
            "byteOffset" : 288
        },
        {
            "buffer" : 0,
            "byteLength" : 384,
            "byteOffset" : 576
        },
        {
            "buffer" : 0,
            "byteLength" : 192,
            "byteOffset" : 960
        },
        {
            "buffer" : 0,
            "byteLength" : 72,
            "byteOffset" : 1152
        },
        {
            "buffer" : 0,
            "byteLength" : 288,
            "byteOffset" : 1224
        },
        {
            "buffer" : 0,
            "byteLength" : 288,
            "byteOffset" : 1512
        },
        {
            "buffer" : 0,
            "byteLength" : 384,
            "byteOffset" : 1800
        },
        {
            "buffer" : 0,
            "byteLength" : 192,
            "byteOffset" : 2184
        },
        {
            "buffer" : 0,
            "byteLength" : 192,
            "byteOffset" : 2376
        }
    ],
    "samplers" : [
        {
            "magFilter" : 9729,
            "minFilter" : 9987
        }
    ],
    "buffers" : [
        {
            "byteLength" : 2568,
            "uri" : "environment V01.bin"
        }
    ]
}
