{
    "asset" : {
        "generator" : "Khronos glTF Blender I/O v1.6.8",
        "version" : "2.0"
    },
    "extensionsUsed" : [
        "KHR_texture_transform"
    ],
    "extensionsRequired" : [
        "KHR_texture_transform"
    ],
    "scene" : 0,
    "scenes" : [
        {
            "name" : "Scene",
            "nodes" : [
                0,
                1,
                2,
                3,
                4,
                5,
                6
            ]
        }
    ],
    "nodes" : [
        {
            "name" : "Camera",
            "rotation" : [
                0.5037181973457336,
                -0.19261668622493744,
                0.11632991582155228,
                0.8340468406677246
            ],
            "scale" : [
                6.769072532653809,
                6.769073009490967,
                6.769072532653809
            ],
            "translation" : [
                -0.24895399808883667,
                0.2553413212299347,
                0.4709285795688629
            ]
        },
        {
            "mesh" : 0,
            "name" : "table"
        },
        {
            "mesh" : 1,
            "name" : "measurement pad"
        },
        {
            "mesh" : 2,
            "name" : "cap bottom",
            "rotation" : [
                0,
                0,
                1,
                7.549790126404332e-08
            ],
            "translation" : [
                -0.03886990249156952,
                0.02433512546122074,
                0.0702461525797844
            ]
        },
        {
            "name" : "Spotlight",
            "rotation" : [
                -0.2233230322599411,
                0.4593132436275482,
                0.12049856036901474,
                0.8512568473815918
            ],
            "translation" : [
                -0.4300000071525574,
                0.8499999642372131,
                -0.22999997437000275
            ]
        },
        {
            "name" : "Frontlight",
            "rotation" : [
                0.493902325630188,
                0.2308710664510727,
                -0.1378999948501587,
                0.826887309551239
            ],
            "translation" : [
                0.3999999761581421,
                0.4099999666213989,
                0.6899999976158142
            ]
        },
        {
            "name" : "Backlight",
            "rotation" : [
                -0.597615122795105,
                -0.20206961035728455,
                -0.1590130776166916,
                0.7594334483146667
            ],
            "translation" : [
                1.2799999713897705,
                0.5916231274604797,
                -2.1857824325561523
            ]
        }
    ],
    "materials" : [
        {
            "doubleSided" : true,
            "name" : "woodtable",
            "normalTexture" : {
                "index" : 0
            },
            "pbrMetallicRoughness" : {
                "baseColorTexture" : {
                    "index" : 1
                },
                "metallicRoughnessTexture" : {
                    "index" : 2
                }
            }
        },
        {
            "doubleSided" : true,
            "name" : "grid pad",
            "pbrMetallicRoughness" : {
                "baseColorTexture" : {
                    "index" : 3
                },
                "metallicRoughnessTexture" : {
                    "extensions" : {
                        "KHR_texture_transform" : {
                            "offset" : [
                                0,
                                -2
                            ],
                            "scale" : [
                                3,
                                3
                            ]
                        }
                    },
                    "index" : 4
                }
            }
        },
        {
            "doubleSided" : true,
            "name" : "metal",
            "pbrMetallicRoughness" : {
                "baseColorFactor" : [
                    0.2529434263706207,
                    0.2529434263706207,
                    0.2529434263706207,
                    1
                ],
                "metallicFactor" : 0.5,
                "roughnessFactor" : 0.4909090995788574
            }
        }
    ],
    "meshes" : [
        {
            "name" : "Cube.001",
            "primitives" : [
                {
                    "attributes" : {
                        "POSITION" : 0,
                        "NORMAL" : 1,
                        "TANGENT" : 2,
                        "TEXCOORD_0" : 3
                    },
                    "indices" : 4,
                    "material" : 0
                }
            ]
        },
        {
            "name" : "Cube.002",
            "primitives" : [
                {
                    "attributes" : {
                        "POSITION" : 5,
                        "NORMAL" : 6,
                        "TANGENT" : 7,
                        "TEXCOORD_0" : 8
                    },
                    "indices" : 4,
                    "material" : 1
                }
            ]
        },
        {
            "name" : "ID3",
            "primitives" : [
                {
                    "attributes" : {
                        "POSITION" : 9,
                        "NORMAL" : 10,
                        "TANGENT" : 11,
                        "TEXCOORD_0" : 12
                    },
                    "indices" : 13,
                    "material" : 2
                }
            ]
        }
    ],
    "textures" : [
        {
            "sampler" : 0,
            "source" : 0
        },
        {
            "sampler" : 0,
            "source" : 1
        },
        {
            "sampler" : 0,
            "source" : 2
        },
        {
            "sampler" : 0,
            "source" : 3
        },
        {
            "sampler" : 0,
            "source" : 4
        }
    ],
    "images" : [
        {
            "mimeType" : "image/jpeg",
            "name" : "Wood051_8K_Normal",
            "uri" : "Wood051_8K_Normal.jpg"
        },
        {
            "mimeType" : "image/jpeg",
            "name" : "Wood051_8K_Color",
            "uri" : "Wood051_8K_Color.jpg"
        },
        {
            "mimeType" : "image/png",
            "name" : "Wood051_4K_Roughness",
            "uri" : "Wood051_4K_Roughness.png"
        },
        {
            "mimeType" : "image/png",
            "name" : "grid-pad V01",
            "uri" : "grid-pad%20V01.png"
        },
        {
            "mimeType" : "image/png",
            "name" : "noise",
            "uri" : "noise.png"
        }
    ],
    "accessors" : [
        {
            "bufferView" : 0,
            "componentType" : 5126,
            "count" : 24,
            "max" : [
                0.5,
                0.009808093309402466,
                0.5
            ],
            "min" : [
                -0.5,
                -0.009808093309402466,
                -0.5
            ],
            "type" : "VEC3"
        },
        {
            "bufferView" : 1,
            "componentType" : 5126,
            "count" : 24,
            "type" : "VEC3"
        },
        {
            "bufferView" : 2,
            "componentType" : 5126,
            "count" : 24,
            "type" : "VEC4"
        },
        {
            "bufferView" : 3,
            "componentType" : 5126,
            "count" : 24,
            "type" : "VEC2"
        },
        {
            "bufferView" : 4,
            "componentType" : 5123,
            "count" : 36,
            "type" : "SCALAR"
        },
        {
            "bufferView" : 5,
            "componentType" : 5126,
            "count" : 24,
            "max" : [
                0.125,
                0.0112571120262146,
                0.125
            ],
            "min" : [
                -0.125,
                0.009813751094043255,
                -0.125
            ],
            "type" : "VEC3"
        },
        {
            "bufferView" : 6,
            "componentType" : 5126,
            "count" : 24,
            "type" : "VEC3"
        },
        {
            "bufferView" : 7,
            "componentType" : 5126,
            "count" : 24,
            "type" : "VEC4"
        },
        {
            "bufferView" : 8,
            "componentType" : 5126,
            "count" : 24,
            "type" : "VEC2"
        },
        {
            "bufferView" : 9,
            "componentType" : 5126,
            "count" : 26520,
            "max" : [
                0.07100000232458115,
                0.013000000268220901,
                0.03800000250339508
            ],
            "min" : [
                -0.05400000140070915,
                -0.004414999857544899,
                -0.03500000014901161
            ],
            "type" : "VEC3"
        },
        {
            "bufferView" : 10,
            "componentType" : 5126,
            "count" : 26520,
            "type" : "VEC3"
        },
        {
            "bufferView" : 11,
            "componentType" : 5126,
            "count" : 26520,
            "type" : "VEC4"
        },
        {
            "bufferView" : 12,
            "componentType" : 5126,
            "count" : 26520,
            "type" : "VEC2"
        },
        {
            "bufferView" : 13,
            "componentType" : 5123,
            "count" : 71700,
            "type" : "SCALAR"
        }
    ],
    "bufferViews" : [
        {
            "buffer" : 0,
            "byteLength" : 288,
            "byteOffset" : 0
        },
        {
            "buffer" : 0,
            "byteLength" : 288,
            "byteOffset" : 288
        },
        {
            "buffer" : 0,
            "byteLength" : 384,
            "byteOffset" : 576
        },
        {
            "buffer" : 0,
            "byteLength" : 192,
            "byteOffset" : 960
        },
        {
            "buffer" : 0,
            "byteLength" : 72,
            "byteOffset" : 1152
        },
        {
            "buffer" : 0,
            "byteLength" : 288,
            "byteOffset" : 1224
        },
        {
            "buffer" : 0,
            "byteLength" : 288,
            "byteOffset" : 1512
        },
        {
            "buffer" : 0,
            "byteLength" : 384,
            "byteOffset" : 1800
        },
        {
            "buffer" : 0,
            "byteLength" : 192,
            "byteOffset" : 2184
        },
        {
            "buffer" : 0,
            "byteLength" : 318240,
            "byteOffset" : 2376
        },
        {
            "buffer" : 0,
            "byteLength" : 318240,
            "byteOffset" : 320616
        },
        {
            "buffer" : 0,
            "byteLength" : 424320,
            "byteOffset" : 638856
        },
        {
            "buffer" : 0,
            "byteLength" : 212160,
            "byteOffset" : 1063176
        },
        {
            "buffer" : 0,
            "byteLength" : 143400,
            "byteOffset" : 1275336
        }
    ],
    "samplers" : [
        {
            "magFilter" : 9729,
            "minFilter" : 9987
        }
    ],
    "buffers" : [
        {
            "byteLength" : 1418736,
            "uri" : "environment V01.bin"
        }
    ]
}
