{
    "asset" : {
        "generator" : "Khronos glTF Blender I/O v1.6.8",
        "version" : "2.0"
    },
    "scene" : 0,
    "scenes" : [
        {
            "name" : "Scene",
            "nodes" : [
                0
            ]
        }
    ],
    "nodes" : [
        {
            "mesh" : 0,
            "name" : "pencil",
            "rotation" : [
                0.6123724579811096,
                -0.6123724579811096,
                0.3535534739494324,
                0.3535534143447876
            ],
            "scale" : [
                0.6000000238418579,
                1,
                0.6000000238418579
            ]
        }
    ],
    "materials" : [
        {
            "doubleSided" : true,
            "name" : "pencil",
            "pbrMetallicRoughness" : {
                "baseColorTexture" : {
                    "index" : 0
                },
                "metallicFactor" : 0,
                "roughnessFactor" : 0.37727272510528564
            }
        }
    ],
    "meshes" : [
        {
            "name" : "Cylinder",
            "primitives" : [
                {
                    "attributes" : {
                        "POSITION" : 0,
                        "NORMAL" : 1,
                        "TEXCOORD_0" : 2
                    },
                    "indices" : 3,
                    "material" : 0
                }
            ]
        }
    ],
    "textures" : [
        {
            "sampler" : 0,
            "source" : 0
        }
    ],
    "images" : [
        {
            "mimeType" : "image/png",
            "name" : "pencil-texture",
            "uri" : "pencil-texture.png"
        }
    ],
    "accessors" : [
        {
            "bufferView" : 0,
            "componentType" : 5126,
            "count" : 262,
            "max" : [
                0.006062178406864405,
                0.07999999821186066,
                0.007000000216066837
            ],
            "min" : [
                -0.006062178406864405,
                -0.06963244080543518,
                -0.007000000216066837
            ],
            "type" : "VEC3"
        },
        {
            "bufferView" : 1,
            "componentType" : 5126,
            "count" : 262,
            "type" : "VEC3"
        },
        {
            "bufferView" : 2,
            "componentType" : 5126,
            "count" : 262,
            "type" : "VEC2"
        },
        {
            "bufferView" : 3,
            "componentType" : 5123,
            "count" : 1020,
            "type" : "SCALAR"
        }
    ],
    "bufferViews" : [
        {
            "buffer" : 0,
            "byteLength" : 3144,
            "byteOffset" : 0
        },
        {
            "buffer" : 0,
            "byteLength" : 3144,
            "byteOffset" : 3144
        },
        {
            "buffer" : 0,
            "byteLength" : 2096,
            "byteOffset" : 6288
        },
        {
            "buffer" : 0,
            "byteLength" : 2040,
            "byteOffset" : 8384
        }
    ],
    "samplers" : [
        {
            "magFilter" : 9729,
            "minFilter" : 9987
        }
    ],
    "buffers" : [
        {
            "byteLength" : 10424,
            "uri" : "pencil-V01.bin"
        }
    ]
}
