{
    "asset" : {
        "generator" : "Khronos glTF Blender I/O v1.6.9",
        "version" : "2.0"
    },
    "scene" : 0,
    "scenes" : [
        {
            "name" : "Scene",
            "nodes" : [
                0,
                1,
                2,
                3,
                4,
                5,
                6,
                7
            ]
        }
    ],
    "nodes" : [
        {
            "mesh" : 0,
            "name" : "table",
            "translation" : [
                0.13299351930618286,
                -0.011149999685585499,
                -0.09567772597074509
            ]
        },
        {
            "mesh" : 1,
            "name" : "measurement pad",
            "translation" : [
                0.11479999870061874,
                -0.011260000057518482,
                -0.11479999870061874
            ]
        },
        {
            "mesh" : 2,
            "name" : "pencil",
            "rotation" : [
                0.5577498078346252,
                -0.6552873849868774,
                0.4346436858177185,
                0.2657037079334259
            ],
            "scale" : [
                0.6000000238418579,
                1,
                0.6000000238418579
            ],
            "translation" : [
                -0.013191740959882736,
                0.0022981958463788033,
                0.03591866046190262
            ]
        },
        {
            "mesh" : 3,
            "name" : "eraser",
            "rotation" : [
                0,
                -0.31380119919776917,
                0,
                0.9494886994361877
            ],
            "scale" : [
                0.0071830651722848415,
                0.0071830651722848415,
                0.0071830651722848415
            ],
            "translation" : [
                -0.04115976393222809,
                0.002194915898144245,
                -0.04481695592403412
            ]
        },
        {
            "mesh" : 4,
            "name" : "Plane",
            "rotation" : [
                0,
                0.09033864736557007,
                0,
                0.9959111213684082
            ],
            "scale" : [
                9.552851676940918,
                9.552851676940918,
                9.552851676940918
            ],
            "translation" : [
                -0.13706065714359283,
                -0.001235884497873485,
                -0.15952998399734497
            ]
        },
        {
            "name" : "Spotlight",
            "rotation" : [
                -0.2233230322599411,
                0.4593132436275482,
                0.12049856036901474,
                0.8512568473815918
            ],
            "translation" : [
                -0.4300000071525574,
                0.8499999642372131,
                -0.20999997854232788
            ]
        },
        {
            "name" : "Frontlight",
            "rotation" : [
                0.493902325630188,
                0.2308710664510727,
                -0.1378999948501587,
                0.826887309551239
            ],
            "translation" : [
                0.3999999761581421,
                0.4099999666213989,
                0.6899999976158142
            ]
        },
        {
            "name" : "Backlight",
            "rotation" : [
                -0.597615122795105,
                -0.20206961035728455,
                -0.1590130776166916,
                0.7594334483146667
            ],
            "translation" : [
                1.2799999713897705,
                0.5916231274604797,
                -2.1857824325561523
            ]
        }
    ],
    "materials" : [
        {
            "doubleSided" : true,
            "name" : "woodtable",
            "normalTexture" : {
                "index" : 0,
                "scale" : 0.30000007152557373
            },
            "pbrMetallicRoughness" : {
                "baseColorTexture" : {
                    "index" : 1
                },
                "metallicRoughnessTexture" : {
                    "index" : 2
                },
                "roughnessFactor" : 1.5999999046325684
            }
        },
        {
            "doubleSided" : true,
            "name" : "grid pad",
            "normalTexture" : {
                "index" : 3,
                "texCoord" : 1
            },
            "pbrMetallicRoughness" : {
                "baseColorTexture" : {
                    "index" : 4
                },
                "metallicFactor" : 0,
                "roughnessFactor" : 0.7272727489471436
            }
        },
        {
            "doubleSided" : true,
            "name" : "pencil",
            "pbrMetallicRoughness" : {
                "baseColorTexture" : {
                    "index" : 5
                },
                "metallicFactor" : 0,
                "roughnessFactor" : 0.37727272510528564
            }
        },
        {
            "doubleSided" : true,
            "name" : "eraser",
            "pbrMetallicRoughness" : {
                "baseColorTexture" : {
                    "index" : 6
                },
                "metallicFactor" : 0,
                "roughnessFactor" : 0.7272727489471436
            }
        },
        {
            "doubleSided" : true,
            "name" : "drawing.001",
            "pbrMetallicRoughness" : {
                "baseColorTexture" : {
                    "index" : 7
                },
                "metallicFactor" : 0,
                "roughnessFactor" : 0.5
            }
        }
    ],
    "meshes" : [
        {
            "name" : "Cube.001",
            "primitives" : [
                {
                    "attributes" : {
                        "POSITION" : 0,
                        "NORMAL" : 1,
                        "TANGENT" : 2,
                        "TEXCOORD_0" : 3
                    },
                    "indices" : 4,
                    "material" : 0
                }
            ]
        },
        {
            "name" : "Cube.002",
            "primitives" : [
                {
                    "attributes" : {
                        "POSITION" : 5,
                        "NORMAL" : 6,
                        "TANGENT" : 7,
                        "TEXCOORD_0" : 8,
                        "TEXCOORD_1" : 9
                    },
                    "indices" : 4,
                    "material" : 1
                }
            ]
        },
        {
            "name" : "Cylinder",
            "primitives" : [
                {
                    "attributes" : {
                        "POSITION" : 10,
                        "NORMAL" : 11,
                        "TEXCOORD_0" : 12
                    },
                    "indices" : 13,
                    "material" : 2
                }
            ]
        },
        {
            "name" : "Cube",
            "primitives" : [
                {
                    "attributes" : {
                        "POSITION" : 14,
                        "NORMAL" : 15,
                        "TANGENT" : 16,
                        "TEXCOORD_0" : 17
                    },
                    "indices" : 18,
                    "material" : 3
                }
            ]
        },
        {
            "name" : "Plane.001",
            "primitives" : [
                {
                    "attributes" : {
                        "POSITION" : 19,
                        "NORMAL" : 20,
                        "TANGENT" : 21,
                        "TEXCOORD_0" : 22
                    },
                    "indices" : 23,
                    "material" : 4
                }
            ]
        }
    ],
    "textures" : [
        {
            "sampler" : 0,
            "source" : 0
        },
        {
            "sampler" : 0,
            "source" : 1
        },
        {
            "sampler" : 0,
            "source" : 2
        },
        {
            "sampler" : 0,
            "source" : 3
        },
        {
            "sampler" : 0,
            "source" : 4
        },
        {
            "sampler" : 0,
            "source" : 5
        },
        {
            "sampler" : 0,
            "source" : 6
        },
        {
            "sampler" : 0,
            "source" : 7
        }
    ],
    "images" : [
        {
            "mimeType" : "image/jpeg",
            "name" : "Wood051_2K_Normal",
            "uri" : "Wood051_2K_Normal.jpg"
        },
        {
            "mimeType" : "image/jpeg",
            "name" : "Wood051_2K_Color",
            "uri" : "Wood051_2K_Color.jpg"
        },
        {
            "mimeType" : "image/png",
            "name" : "metalness-Wood051_2K_Roughness",
            "uri" : "metalness-Wood051_2K_Roughness.png"
        },
        {
            "mimeType" : "image/png",
            "name" : "pad-normalmap",
            "uri" : "pad-normalmap.png"
        },
        {
            "mimeType" : "image/png",
            "name" : "grid-pad V01",
            "uri" : "grid-pad%20V01.png"
        },
        {
            "mimeType" : "image/png",
            "name" : "pencil-texture",
            "uri" : "pencil-texture.png"
        },
        {
            "mimeType" : "image/png",
            "name" : "eraser",
            "uri" : "eraser.png"
        },
        {
            "mimeType" : "image/png",
            "name" : "AXIOM_Beta_Compact_Enclosure_Exploded_View_V01",
            "uri" : "AXIOM_Beta_Compact_Enclosure_Exploded_View_V01.png"
        }
    ],
    "accessors" : [
        {
            "bufferView" : 0,
            "componentType" : 5126,
            "count" : 24,
            "max" : [
                0.5,
                0.009808093309402466,
                0.5
            ],
            "min" : [
                -0.5,
                -0.009808093309402466,
                -0.5
            ],
            "type" : "VEC3"
        },
        {
            "bufferView" : 1,
            "componentType" : 5126,
            "count" : 24,
            "type" : "VEC3"
        },
        {
            "bufferView" : 2,
            "componentType" : 5126,
            "count" : 24,
            "type" : "VEC4"
        },
        {
            "bufferView" : 3,
            "componentType" : 5126,
            "count" : 24,
            "type" : "VEC2"
        },
        {
            "bufferView" : 4,
            "componentType" : 5123,
            "count" : 36,
            "type" : "SCALAR"
        },
        {
            "bufferView" : 5,
            "componentType" : 5126,
            "count" : 24,
            "max" : [
                0.125,
                0.0112571120262146,
                0.125
            ],
            "min" : [
                -0.125,
                0.009813751094043255,
                -0.125
            ],
            "type" : "VEC3"
        },
        {
            "bufferView" : 6,
            "componentType" : 5126,
            "count" : 24,
            "type" : "VEC3"
        },
        {
            "bufferView" : 7,
            "componentType" : 5126,
            "count" : 24,
            "type" : "VEC4"
        },
        {
            "bufferView" : 8,
            "componentType" : 5126,
            "count" : 24,
            "type" : "VEC2"
        },
        {
            "bufferView" : 9,
            "componentType" : 5126,
            "count" : 24,
            "type" : "VEC2"
        },
        {
            "bufferView" : 10,
            "componentType" : 5126,
            "count" : 262,
            "max" : [
                0.006062178406864405,
                0.07999999821186066,
                0.007000000216066837
            ],
            "min" : [
                -0.006062178406864405,
                -0.06963244080543518,
                -0.007000000216066837
            ],
            "type" : "VEC3"
        },
        {
            "bufferView" : 11,
            "componentType" : 5126,
            "count" : 262,
            "type" : "VEC3"
        },
        {
            "bufferView" : 12,
            "componentType" : 5126,
            "count" : 262,
            "type" : "VEC2"
        },
        {
            "bufferView" : 13,
            "componentType" : 5123,
            "count" : 1020,
            "type" : "SCALAR"
        },
        {
            "bufferView" : 14,
            "componentType" : 5126,
            "count" : 196,
            "max" : [
                0.9999999403953552,
                0.4854232668876648,
                2.818169116973877
            ],
            "min" : [
                -1.0000001192092896,
                -0.49025458097457886,
                -2.8810606002807617
            ],
            "type" : "VEC3"
        },
        {
            "bufferView" : 15,
            "componentType" : 5126,
            "count" : 196,
            "type" : "VEC3"
        },
        {
            "bufferView" : 16,
            "componentType" : 5126,
            "count" : 196,
            "type" : "VEC4"
        },
        {
            "bufferView" : 17,
            "componentType" : 5126,
            "count" : 196,
            "type" : "VEC2"
        },
        {
            "bufferView" : 18,
            "componentType" : 5123,
            "count" : 564,
            "type" : "SCALAR"
        },
        {
            "bufferView" : 19,
            "componentType" : 5126,
            "count" : 24,
            "max" : [
                0.010753807611763477,
                0.0009741407120600343,
                0.009999999776482582
            ],
            "min" : [
                -0.010247936472296715,
                0,
                -0.010130457580089569
            ],
            "type" : "VEC3"
        },
        {
            "bufferView" : 20,
            "componentType" : 5126,
            "count" : 24,
            "type" : "VEC3"
        },
        {
            "bufferView" : 21,
            "componentType" : 5126,
            "count" : 24,
            "type" : "VEC4"
        },
        {
            "bufferView" : 22,
            "componentType" : 5126,
            "count" : 24,
            "type" : "VEC2"
        },
        {
            "bufferView" : 23,
            "componentType" : 5123,
            "count" : 66,
            "type" : "SCALAR"
        }
    ],
    "bufferViews" : [
        {
            "buffer" : 0,
            "byteLength" : 288,
            "byteOffset" : 0
        },
        {
            "buffer" : 0,
            "byteLength" : 288,
            "byteOffset" : 288
        },
        {
            "buffer" : 0,
            "byteLength" : 384,
            "byteOffset" : 576
        },
        {
            "buffer" : 0,
            "byteLength" : 192,
            "byteOffset" : 960
        },
        {
            "buffer" : 0,
            "byteLength" : 72,
            "byteOffset" : 1152
        },
        {
            "buffer" : 0,
            "byteLength" : 288,
            "byteOffset" : 1224
        },
        {
            "buffer" : 0,
            "byteLength" : 288,
            "byteOffset" : 1512
        },
        {
            "buffer" : 0,
            "byteLength" : 384,
            "byteOffset" : 1800
        },
        {
            "buffer" : 0,
            "byteLength" : 192,
            "byteOffset" : 2184
        },
        {
            "buffer" : 0,
            "byteLength" : 192,
            "byteOffset" : 2376
        },
        {
            "buffer" : 0,
            "byteLength" : 3144,
            "byteOffset" : 2568
        },
        {
            "buffer" : 0,
            "byteLength" : 3144,
            "byteOffset" : 5712
        },
        {
            "buffer" : 0,
            "byteLength" : 2096,
            "byteOffset" : 8856
        },
        {
            "buffer" : 0,
            "byteLength" : 2040,
            "byteOffset" : 10952
        },
        {
            "buffer" : 0,
            "byteLength" : 2352,
            "byteOffset" : 12992
        },
        {
            "buffer" : 0,
            "byteLength" : 2352,
            "byteOffset" : 15344
        },
        {
            "buffer" : 0,
            "byteLength" : 3136,
            "byteOffset" : 17696
        },
        {
            "buffer" : 0,
            "byteLength" : 1568,
            "byteOffset" : 20832
        },
        {
            "buffer" : 0,
            "byteLength" : 1128,
            "byteOffset" : 22400
        },
        {
            "buffer" : 0,
            "byteLength" : 288,
            "byteOffset" : 23528
        },
        {
            "buffer" : 0,
            "byteLength" : 288,
            "byteOffset" : 23816
        },
        {
            "buffer" : 0,
            "byteLength" : 384,
            "byteOffset" : 24104
        },
        {
            "buffer" : 0,
            "byteLength" : 192,
            "byteOffset" : 24488
        },
        {
            "buffer" : 0,
            "byteLength" : 132,
            "byteOffset" : 24680
        }
    ],
    "samplers" : [
        {
            "magFilter" : 9729,
            "minFilter" : 9987
        }
    ],
    "buffers" : [
        {
            "byteLength" : 24812,
            "uri" : "environment_V02.bin"
        }
    ]
}
